<svg xmlns="http://www.w3.org/2000/svg" viewBox="0 0 199.7 184.2"><style>@media (prefers-color-scheme:dark){svg{fill:#fff}}</style><path d="M189.5 36.8c.2 2.8 0 5.1-.6 6.8L153 162c-.6 2.1-2 3.7-4.2 5-2.2 1.2-4.4 1.9-6.7 1.9H31.4c-9.6 0-15.3-2.8-17.3-8.4-.8-2.2-.8-3.9.1-5.2.9-1.2 2.4-1.8 4.6-1.8H123c7.4 0 12.6-1.4 15.4-4.1s5.7-8.9 8.6-18.4l32.9-108.6c1.8-5.9 1-11.1-2.2-15.6S169.9 0 164 0H72.7c-1 0-3.1.4-6.1 1.1l.1-.4Q63.4-.05 61 .1c-2.4.15-3 .5-4.3 1.4s-2.4 1.8-3.2 2.8-1.5 2.2-2.3 3.8-1.4 3-1.9 4.3-1.1 2.7-1.8 4.2-1.3 2.7-2 3.7c-.5.6-1.2 1.5-2 2.5s-1.6 2-2.2 2.8-.9 1.5-1.1 2.2-.1 1.8.2 3.2.4 2.4.4 3.1c-.3 3-1.4 6.9-3.3 11.6s-3.6 8.1-5.1 10.1c-.3.4-1.2 1.3-2.6 2.7s-2.3 2.6-2.6 3.7c-.3.4-.3 1.5-.1 3.4.3 1.8.4 3.1.3 3.8q-.45 4.05-3 10.8c-1.7 4.5-3.4 8.2-5 11-.2.5-.9 1.4-2 2.8s-1.8 2.5-2 3.4c-.2.6-.1 1.8.1 3.4s.2 2.8-.1 3.6c-.6 3-1.8 6.7-3.6 11s-3.6 7.9-5.4 11c-.5.8-1.1 1.7-2 2.8-.8 1.1-1.5 2-2 2.8s-.8 1.6-1 2.5c-.1.5 0 1.3.4 2.3.3 1.1.4 1.9.4 2.6-.1 1.1-.2 2.6-.5 4.4-.2 1.8-.4 2.9-.4 3.2-1.8 4.8-1.7 9.9.2 15.2 2.2 6.2 6.2 11.5 11.9 15.8s11.7 6.4 17.8 6.4h110.7c5.2 0 10.1-1.7 14.7-5.2s7.7-7.8 9.2-12.9l33-108.6c1.8-5.8 1-10.9-2.2-15.5-1.7-2.5-4-4.2-7.1-5.4m-129.9 86L73.8 80h10.8c3.8 0 28.8-1.7 25.4 17.5s-18.8 25.2-36.8 25.4-13.6-.1-13.6-.1m19-6c4.7-.1 18.9-2.9 22.1-17.1S89.2 86.3 89.2 86.3h-8.9l-10.2 30.5c.1.1 3.9.1 8.5 0m-3.3-48.1L89 26.2h9.8l.8 34 23.6-34h9.9l-13.6 42.5h-7.1l12.5-35.4-24.5 35.4h-6.8l-.8-35-10.8 35z"/></svg>